<svg width="244" height="124" viewBox="0 0 244 124" fill="none" xmlns="http://www.w3.org/2000/svg">
<path d="M126.88 78.1705H127.592L127.278 77.5313L99.7528 21.4956L99.3543 20.6843L98.9563 21.4958L71.4708 77.5315L71.1574 78.1705H71.8691H126.88ZM94.3353 61.4563L99.3946 51.1459L104.454 61.4563H94.3353Z" fill="#426141" stroke="white" stroke-width="0.887273"/>
<mask id="path-2-outside-1_462_1123" maskUnits="userSpaceOnUse" x="27.5054" y="97.0916" width="199" height="22" fill="black">
<rect fill="white" x="27.5054" y="97.0916" width="199" height="22"/>
<path d="M29.3805 99.0235H35.4855L39.685 109.257H39.8967L44.0961 99.0235H50.2012V117.092H45.4018V106.646H45.2607L41.2377 116.95H38.344L34.321 106.575H34.1798V117.092H29.3805V99.0235ZM52.5258 117.092V99.0235H65.5476V102.976H57.431V106.081H64.8771V110.034H57.431V113.139H65.5123V117.092H52.5258ZM67.9803 99.0235H74.0854L78.2848 109.257H78.4965L82.6959 99.0235H88.801V117.092H84.0016V106.646H83.8605L79.8375 116.95H76.9438L72.9208 106.575H72.7797V117.092H67.9803V99.0235ZM108.629 108.058C108.629 110.069 108.238 111.766 107.456 113.148C106.674 114.524 105.618 115.568 104.289 116.28C102.959 116.986 101.477 117.339 99.8421 117.339C98.1953 117.339 96.7072 116.983 95.378 116.271C94.0547 115.554 93.0019 114.507 92.2196 113.13C91.4433 111.748 91.0551 110.057 91.0551 108.058C91.0551 106.046 91.4433 104.352 92.2196 102.976C93.0019 101.594 94.0547 100.55 95.378 99.8439C96.7072 99.1323 98.1953 98.7764 99.8421 98.7764C101.477 98.7764 102.959 99.1323 104.289 99.8439C105.618 100.55 106.674 101.594 107.456 102.976C108.238 104.352 108.629 106.046 108.629 108.058ZM103.583 108.058C103.583 106.975 103.439 106.064 103.15 105.323C102.868 104.576 102.448 104.011 101.889 103.629C101.336 103.241 100.654 103.046 99.8421 103.046C99.0305 103.046 98.3453 103.241 97.7865 103.629C97.2336 104.011 96.8131 104.576 96.5249 105.323C96.2426 106.064 96.1014 106.975 96.1014 108.058C96.1014 109.14 96.2426 110.054 96.5249 110.801C96.8131 111.542 97.2336 112.107 97.7865 112.495C98.3453 112.877 99.0305 113.069 99.8421 113.069C100.654 113.069 101.336 112.877 101.889 112.495C102.448 112.107 102.868 111.542 103.15 110.801C103.439 110.054 103.583 109.14 103.583 108.058ZM110.899 117.092V99.0235H118.698C120.039 99.0235 121.212 99.2675 122.218 99.7557C123.223 100.244 124.006 100.947 124.564 101.864C125.123 102.782 125.403 103.882 125.403 105.164C125.403 106.458 125.114 107.549 124.538 108.437C123.967 109.325 123.165 109.995 122.129 110.448C121.1 110.901 119.897 111.128 118.521 111.128H113.863V107.316H117.533C118.109 107.316 118.601 107.246 119.006 107.105C119.418 106.958 119.733 106.725 119.95 106.408C120.174 106.09 120.286 105.675 120.286 105.164C120.286 104.646 120.174 104.226 119.95 103.902C119.733 103.573 119.418 103.332 119.006 103.179C118.601 103.02 118.109 102.941 117.533 102.941H115.804V117.092H110.899ZM121.485 108.799L126.002 117.092H120.674L116.263 108.799H121.485ZM125.903 99.0235H131.373L134.902 106.364H135.043L138.572 99.0235H144.042L137.408 111.41V117.092H132.538V111.41L125.903 99.0235ZM162.324 104.987C162.247 104.676 162.127 104.402 161.962 104.167C161.798 103.926 161.592 103.723 161.345 103.558C161.104 103.388 160.821 103.261 160.498 103.179C160.18 103.091 159.83 103.046 159.448 103.046C158.624 103.046 157.922 103.243 157.339 103.638C156.763 104.032 156.322 104.599 156.016 105.34C155.716 106.081 155.566 106.975 155.566 108.022C155.566 109.081 155.71 109.987 155.998 110.739C156.287 111.492 156.716 112.069 157.286 112.469C157.857 112.869 158.566 113.069 159.413 113.069C160.16 113.069 160.78 112.96 161.274 112.742C161.774 112.525 162.147 112.216 162.395 111.816C162.642 111.416 162.765 110.945 162.765 110.404L163.612 110.492H159.483V106.999H167.494V109.504C167.494 111.151 167.144 112.56 166.444 113.73C165.75 114.895 164.791 115.789 163.568 116.412C162.35 117.03 160.954 117.339 159.377 117.339C157.619 117.339 156.075 116.965 154.746 116.218C153.416 115.471 152.378 114.407 151.631 113.024C150.89 111.642 150.52 109.998 150.52 108.093C150.52 106.599 150.746 105.276 151.199 104.123C151.658 102.97 152.293 101.997 153.105 101.203C153.916 100.403 154.854 99.7998 155.919 99.394C156.983 98.9823 158.125 98.7764 159.342 98.7764C160.412 98.7764 161.406 98.9294 162.324 99.2352C163.247 99.5351 164.062 99.9645 164.768 100.523C165.479 101.076 166.053 101.732 166.488 102.491C166.923 103.249 167.188 104.082 167.282 104.987H162.324ZM173.916 117.092H168.623L174.587 99.0235H181.292L187.256 117.092H181.962L178.01 103.999H177.869L173.916 117.092ZM172.928 109.963H182.88V113.633H172.928V109.963ZM188.996 99.0235H195.101L199.3 109.257H199.512L203.712 99.0235H209.817V117.092H205.017V106.646H204.876L200.853 116.95H197.959L193.936 106.575H193.795V117.092H188.996V99.0235ZM212.141 117.092V99.0235H225.163V102.976H217.047V106.081H224.493V110.034H217.047V113.139H225.128V117.092H212.141Z"/>
</mask>
<path d="M29.3805 99.0235H35.4855L39.685 109.257H39.8967L44.0961 99.0235H50.2012V117.092H45.4018V106.646H45.2607L41.2377 116.95H38.344L34.321 106.575H34.1798V117.092H29.3805V99.0235ZM52.5258 117.092V99.0235H65.5476V102.976H57.431V106.081H64.8771V110.034H57.431V113.139H65.5123V117.092H52.5258ZM67.9803 99.0235H74.0854L78.2848 109.257H78.4965L82.6959 99.0235H88.801V117.092H84.0016V106.646H83.8605L79.8375 116.95H76.9438L72.9208 106.575H72.7797V117.092H67.9803V99.0235ZM108.629 108.058C108.629 110.069 108.238 111.766 107.456 113.148C106.674 114.524 105.618 115.568 104.289 116.28C102.959 116.986 101.477 117.339 99.8421 117.339C98.1953 117.339 96.7072 116.983 95.378 116.271C94.0547 115.554 93.0019 114.507 92.2196 113.13C91.4433 111.748 91.0551 110.057 91.0551 108.058C91.0551 106.046 91.4433 104.352 92.2196 102.976C93.0019 101.594 94.0547 100.55 95.378 99.8439C96.7072 99.1323 98.1953 98.7764 99.8421 98.7764C101.477 98.7764 102.959 99.1323 104.289 99.8439C105.618 100.55 106.674 101.594 107.456 102.976C108.238 104.352 108.629 106.046 108.629 108.058ZM103.583 108.058C103.583 106.975 103.439 106.064 103.15 105.323C102.868 104.576 102.448 104.011 101.889 103.629C101.336 103.241 100.654 103.046 99.8421 103.046C99.0305 103.046 98.3453 103.241 97.7865 103.629C97.2336 104.011 96.8131 104.576 96.5249 105.323C96.2426 106.064 96.1014 106.975 96.1014 108.058C96.1014 109.14 96.2426 110.054 96.5249 110.801C96.8131 111.542 97.2336 112.107 97.7865 112.495C98.3453 112.877 99.0305 113.069 99.8421 113.069C100.654 113.069 101.336 112.877 101.889 112.495C102.448 112.107 102.868 111.542 103.15 110.801C103.439 110.054 103.583 109.14 103.583 108.058ZM110.899 117.092V99.0235H118.698C120.039 99.0235 121.212 99.2675 122.218 99.7557C123.223 100.244 124.006 100.947 124.564 101.864C125.123 102.782 125.403 103.882 125.403 105.164C125.403 106.458 125.114 107.549 124.538 108.437C123.967 109.325 123.165 109.995 122.129 110.448C121.1 110.901 119.897 111.128 118.521 111.128H113.863V107.316H117.533C118.109 107.316 118.601 107.246 119.006 107.105C119.418 106.958 119.733 106.725 119.95 106.408C120.174 106.09 120.286 105.675 120.286 105.164C120.286 104.646 120.174 104.226 119.95 103.902C119.733 103.573 119.418 103.332 119.006 103.179C118.601 103.02 118.109 102.941 117.533 102.941H115.804V117.092H110.899ZM121.485 108.799L126.002 117.092H120.674L116.263 108.799H121.485ZM125.903 99.0235H131.373L134.902 106.364H135.043L138.572 99.0235H144.042L137.408 111.41V117.092H132.538V111.41L125.903 99.0235ZM162.324 104.987C162.247 104.676 162.127 104.402 161.962 104.167C161.798 103.926 161.592 103.723 161.345 103.558C161.104 103.388 160.821 103.261 160.498 103.179C160.18 103.091 159.83 103.046 159.448 103.046C158.624 103.046 157.922 103.243 157.339 103.638C156.763 104.032 156.322 104.599 156.016 105.34C155.716 106.081 155.566 106.975 155.566 108.022C155.566 109.081 155.71 109.987 155.998 110.739C156.287 111.492 156.716 112.069 157.286 112.469C157.857 112.869 158.566 113.069 159.413 113.069C160.16 113.069 160.78 112.96 161.274 112.742C161.774 112.525 162.147 112.216 162.395 111.816C162.642 111.416 162.765 110.945 162.765 110.404L163.612 110.492H159.483V106.999H167.494V109.504C167.494 111.151 167.144 112.56 166.444 113.73C165.75 114.895 164.791 115.789 163.568 116.412C162.35 117.03 160.954 117.339 159.377 117.339C157.619 117.339 156.075 116.965 154.746 116.218C153.416 115.471 152.378 114.407 151.631 113.024C150.89 111.642 150.52 109.998 150.52 108.093C150.52 106.599 150.746 105.276 151.199 104.123C151.658 102.97 152.293 101.997 153.105 101.203C153.916 100.403 154.854 99.7998 155.919 99.394C156.983 98.9823 158.125 98.7764 159.342 98.7764C160.412 98.7764 161.406 98.9294 162.324 99.2352C163.247 99.5351 164.062 99.9645 164.768 100.523C165.479 101.076 166.053 101.732 166.488 102.491C166.923 103.249 167.188 104.082 167.282 104.987H162.324ZM173.916 117.092H168.623L174.587 99.0235H181.292L187.256 117.092H181.962L178.01 103.999H177.869L173.916 117.092ZM172.928 109.963H182.88V113.633H172.928V109.963ZM188.996 99.0235H195.101L199.3 109.257H199.512L203.712 99.0235H209.817V117.092H205.017V106.646H204.876L200.853 116.95H197.959L193.936 106.575H193.795V117.092H188.996V99.0235ZM212.141 117.092V99.0235H225.163V102.976H217.047V106.081H224.493V110.034H217.047V113.139H225.128V117.092H212.141Z" fill="#DC2E44"/>
<path d="M29.3805 99.0235V97.9168H28.2738V99.0235H29.3805ZM35.4855 99.0235L36.5094 98.6033L36.2276 97.9168H35.4855V99.0235ZM39.685 109.257L38.6611 109.677L38.9428 110.364H39.685V109.257ZM39.8967 109.257V110.364H40.6388L40.9205 109.677L39.8967 109.257ZM44.0961 99.0235V97.9168H43.354L43.0723 98.6033L44.0961 99.0235ZM50.2012 99.0235H51.3078V97.9168H50.2012V99.0235ZM50.2012 117.092V118.198H51.3078V117.092H50.2012ZM45.4018 117.092H44.2951V118.198H45.4018V117.092ZM45.4018 106.646H46.5085V105.539H45.4018V106.646ZM45.2607 106.646V105.539H44.5047L44.2298 106.243L45.2607 106.646ZM41.2377 116.95V118.057H41.9937L42.2686 117.353L41.2377 116.95ZM38.344 116.95L37.3121 117.35L37.5861 118.057H38.344V116.95ZM34.321 106.575L35.3528 106.175L35.0788 105.469H34.321V106.575ZM34.1798 106.575V105.469H33.0732V106.575H34.1798ZM34.1798 117.092V118.198H35.2865V117.092H34.1798ZM29.3805 117.092H28.2738V118.198H29.3805V117.092ZM29.3805 100.13H35.4855V97.9168H29.3805V100.13ZM34.4617 99.4436L38.6611 109.677L40.7088 108.837L36.5094 98.6033L34.4617 99.4436ZM39.685 110.364H39.8967V108.151H39.685V110.364ZM40.9205 109.677L45.1199 99.4436L43.0723 98.6033L38.8729 108.837L40.9205 109.677ZM44.0961 100.13H50.2012V97.9168H44.0961V100.13ZM49.0945 99.0235V117.092H51.3078V99.0235H49.0945ZM50.2012 115.985H45.4018V118.198H50.2012V115.985ZM46.5085 117.092V106.646H44.2951V117.092H46.5085ZM45.4018 105.539H45.2607V107.753H45.4018V105.539ZM44.2298 106.243L40.2068 116.548L42.2686 117.353L46.2916 107.048L44.2298 106.243ZM41.2377 115.844H38.344V118.057H41.2377V115.844ZM39.3758 116.55L35.3528 106.175L33.2892 106.975L37.3121 117.35L39.3758 116.55ZM34.321 105.469H34.1798V107.682H34.321V105.469ZM33.0732 106.575V117.092H35.2865V106.575H33.0732ZM34.1798 115.985H29.3805V118.198H34.1798V115.985ZM30.4872 117.092V99.0235H28.2738V117.092H30.4872ZM52.5258 117.092H51.4192V118.198H52.5258V117.092ZM52.5258 99.0235V97.9168H51.4192V99.0235H52.5258ZM65.5476 99.0235H66.6542V97.9168H65.5476V99.0235ZM65.5476 102.976V104.083H66.6542V102.976H65.5476ZM57.431 102.976V101.869H56.3244V102.976H57.431ZM57.431 106.081H56.3244V107.188H57.431V106.081ZM64.8771 106.081H65.9838V104.975H64.8771V106.081ZM64.8771 110.034V111.14H65.9838V110.034H64.8771ZM57.431 110.034V108.927H56.3244V110.034H57.431ZM57.431 113.139H56.3244V114.246H57.431V113.139ZM65.5123 113.139H66.619V112.032H65.5123V113.139ZM65.5123 117.092V118.198H66.619V117.092H65.5123ZM53.6325 117.092V99.0235H51.4192V117.092H53.6325ZM52.5258 100.13H65.5476V97.9168H52.5258V100.13ZM64.4409 99.0235V102.976H66.6542V99.0235H64.4409ZM65.5476 101.869H57.431V104.083H65.5476V101.869ZM56.3244 102.976V106.081H58.5377V102.976H56.3244ZM57.431 107.188H64.8771V104.975H57.431V107.188ZM63.7704 106.081V110.034H65.9838V106.081H63.7704ZM64.8771 108.927H57.431V111.14H64.8771V108.927ZM56.3244 110.034V113.139H58.5377V110.034H56.3244ZM57.431 114.246H65.5123V112.032H57.431V114.246ZM64.4056 113.139V117.092H66.619V113.139H64.4056ZM65.5123 115.985H52.5258V118.198H65.5123V115.985ZM67.9803 99.0235V97.9168H66.8736V99.0235H67.9803ZM74.0854 99.0235L75.1092 98.6033L74.8275 97.9168H74.0854V99.0235ZM78.2848 109.257L77.2609 109.677L77.5427 110.364H78.2848V109.257ZM78.4965 109.257V110.364H79.2386L79.5203 109.677L78.4965 109.257ZM82.6959 99.0235V97.9168H81.9538L81.6721 98.6033L82.6959 99.0235ZM88.801 99.0235H89.9077V97.9168H88.801V99.0235ZM88.801 117.092V118.198H89.9077V117.092H88.801ZM84.0016 117.092H82.895V118.198H84.0016V117.092ZM84.0016 106.646H85.1083V105.539H84.0016V106.646ZM83.8605 106.646V105.539H83.1045L82.8296 106.243L83.8605 106.646ZM79.8375 116.95V118.057H80.5935L80.8684 117.353L79.8375 116.95ZM76.9438 116.95L75.912 117.35L76.1859 118.057H76.9438V116.95ZM72.9208 106.575L73.9526 106.175L73.6787 105.469H72.9208V106.575ZM72.7797 106.575V105.469H71.673V106.575H72.7797ZM72.7797 117.092V118.198H73.8863V117.092H72.7797ZM67.9803 117.092H66.8736V118.198H67.9803V117.092ZM67.9803 100.13H74.0854V97.9168H67.9803V100.13ZM73.0615 99.4436L77.2609 109.677L79.3086 108.837L75.1092 98.6033L73.0615 99.4436ZM78.2848 110.364H78.4965V108.151H78.2848V110.364ZM79.5203 109.677L83.7198 99.4436L81.6721 98.6033L77.4727 108.837L79.5203 109.677ZM82.6959 100.13H88.801V97.9168H82.6959V100.13ZM87.6943 99.0235V117.092H89.9077V99.0235H87.6943ZM88.801 115.985H84.0016V118.198H88.801V115.985ZM85.1083 117.092V106.646H82.895V117.092H85.1083ZM84.0016 105.539H83.8605V107.753H84.0016V105.539ZM82.8296 106.243L78.8066 116.548L80.8684 117.353L84.8914 107.048L82.8296 106.243ZM79.8375 115.844H76.9438V118.057H79.8375V115.844ZM77.9756 116.55L73.9526 106.175L71.889 106.975L75.912 117.35L77.9756 116.55ZM72.9208 105.469H72.7797V107.682H72.9208V105.469ZM71.673 106.575V117.092H73.8863V106.575H71.673ZM72.7797 115.985H67.9803V118.198H72.7797V115.985ZM69.087 117.092V99.0235H66.8736V117.092H69.087ZM107.456 113.148L108.418 113.695L108.419 113.693L107.456 113.148ZM104.289 116.28L104.808 117.257L104.811 117.256L104.289 116.28ZM95.378 116.271L94.8505 117.244L94.8557 117.247L95.378 116.271ZM92.2196 113.13L91.2547 113.672L91.2575 113.677L92.2196 113.13ZM92.2196 102.976L91.2565 102.431L91.2557 102.432L92.2196 102.976ZM95.378 99.8439L95.8988 100.82L95.9004 100.82L95.378 99.8439ZM104.289 99.8439L103.766 100.82L103.77 100.821L104.289 99.8439ZM107.456 102.976L106.493 103.521L106.494 103.523L107.456 102.976ZM103.15 105.323L102.115 105.714L102.119 105.724L103.15 105.323ZM101.889 103.629L101.253 104.534L101.264 104.542L101.889 103.629ZM97.7865 103.629L98.4159 104.539L98.4179 104.538L97.7865 103.629ZM96.5249 105.323L95.4924 104.924L95.4907 104.929L96.5249 105.323ZM96.5249 110.801L95.4897 111.193L95.4935 111.202L96.5249 110.801ZM97.7865 112.495L97.1505 113.401L97.1616 113.408L97.7865 112.495ZM101.889 112.495L102.518 113.405L102.52 113.404L101.889 112.495ZM103.15 110.801L102.118 110.403L102.116 110.407L103.15 110.801ZM107.522 108.058C107.522 109.928 107.159 111.426 106.493 112.603L108.419 113.693C109.317 112.106 109.736 110.21 109.736 108.058H107.522ZM106.494 112.601C105.809 113.805 104.902 114.696 103.766 115.304L104.811 117.256C106.334 116.44 107.538 115.243 108.418 113.695L106.494 112.601ZM103.77 115.302C102.614 115.916 101.312 116.232 99.8421 116.232V118.445C101.642 118.445 103.305 118.055 104.808 117.257L103.77 115.302ZM99.8421 116.232C98.3603 116.232 97.0544 115.913 95.9004 115.295L94.8557 117.247C96.3601 118.052 98.0302 118.445 99.8421 118.445V116.232ZM95.9055 115.298C94.7736 114.684 93.8673 113.79 93.1818 112.583L91.2575 113.677C92.1364 115.224 93.3357 116.423 94.8505 117.244L95.9055 115.298ZM93.1845 112.588C92.5224 111.41 92.1618 109.916 92.1618 108.058H89.9484C89.9484 110.198 90.3641 112.087 91.2547 113.672L93.1845 112.588ZM92.1618 108.058C92.1618 106.186 92.523 104.691 93.1835 103.52L91.2557 102.432C90.3636 104.014 89.9484 105.906 89.9484 108.058H92.1618ZM93.1828 103.521C93.8679 102.31 94.772 101.421 95.8988 100.82L94.8572 98.8674C93.3373 99.678 92.1359 100.877 91.2565 102.431L93.1828 103.521ZM95.9004 100.82C97.0544 100.202 98.3603 99.8831 99.8421 99.8831V97.6698C98.0302 97.6698 96.3601 98.0628 94.8557 98.8683L95.9004 100.82ZM99.8421 99.8831C101.311 99.8831 102.611 100.201 103.766 100.82L104.811 98.8683C103.308 98.0634 101.644 97.6698 99.8421 97.6698V99.8831ZM103.77 100.821C104.902 101.423 105.808 102.312 106.493 103.521L108.419 102.431C107.539 100.876 106.333 99.6767 104.808 98.8665L103.77 100.821ZM106.494 103.523C107.159 104.693 107.522 106.187 107.522 108.058H109.736C109.736 105.905 109.317 104.011 108.418 102.429L106.494 103.523ZM104.689 108.058C104.689 106.884 104.534 105.827 104.182 104.921L102.119 105.724C102.343 106.3 102.476 107.066 102.476 108.058H104.689ZM104.186 104.931C103.838 104.011 103.291 103.247 102.514 102.715L101.264 104.542C101.604 104.775 101.898 105.14 102.115 105.714L104.186 104.931ZM102.525 102.723C101.751 102.179 100.835 101.94 99.8421 101.94V104.153C100.473 104.153 100.921 104.302 101.253 104.534L102.525 102.723ZM99.8421 101.94C98.8492 101.94 97.9327 102.18 97.1551 102.72L98.4179 104.538C98.7578 104.301 99.2117 104.153 99.8421 104.153V101.94ZM97.1571 102.718C96.3889 103.25 95.845 104.01 95.4924 104.924L97.5574 105.721C97.7812 105.141 98.0784 104.772 98.4159 104.539L97.1571 102.718ZM95.4907 104.929C95.1465 105.832 94.9948 106.887 94.9948 108.058H97.2081C97.2081 107.064 97.3387 106.295 97.5591 105.717L95.4907 104.929ZM94.9948 108.058C94.9948 109.229 95.1466 110.285 95.4897 111.193L97.5601 110.41C97.3386 109.824 97.2081 109.05 97.2081 108.058H94.9948ZM95.4935 111.202C95.8465 112.11 96.3892 112.866 97.1506 113.401L98.4224 111.589C98.0781 111.348 97.7797 110.974 97.5563 110.4L95.4935 111.202ZM97.1616 113.408C97.9384 113.94 98.8526 114.175 99.8421 114.175V111.962C99.2083 111.962 98.7521 111.815 98.4114 111.582L97.1616 113.408ZM99.8421 114.175C100.831 114.175 101.745 113.94 102.518 113.405L101.259 111.585C100.927 111.815 100.476 111.962 99.8421 111.962V114.175ZM102.52 113.404C103.291 112.869 103.836 112.109 104.185 111.195L102.116 110.407C101.9 110.975 101.604 111.345 101.257 111.586L102.52 113.404ZM104.183 111.2C104.534 110.289 104.689 109.231 104.689 108.058H102.476C102.476 109.048 102.343 109.819 102.118 110.403L104.183 111.2ZM110.899 117.092H109.792V118.198H110.899V117.092ZM110.899 99.0235V97.9168H109.792V99.0235H110.899ZM122.218 99.7557L121.734 100.751L122.218 99.7557ZM124.564 101.864L125.51 101.289L125.51 101.289L124.564 101.864ZM124.538 108.437L123.61 107.834L123.607 107.839L124.538 108.437ZM122.129 110.448L121.686 109.434L121.684 109.435L122.129 110.448ZM113.863 111.128H112.756V112.234H113.863V111.128ZM113.863 107.316V106.21H112.756V107.316H113.863ZM119.006 107.105L119.37 108.15L119.379 108.147L119.006 107.105ZM119.95 106.408L119.045 105.771L119.037 105.782L119.95 106.408ZM119.95 103.902L119.027 104.512L119.033 104.522L119.04 104.531L119.95 103.902ZM119.006 103.179L118.603 104.209L118.612 104.213L118.621 104.216L119.006 103.179ZM115.804 102.941V101.834H114.697V102.941H115.804ZM115.804 117.092V118.198H116.911V117.092H115.804ZM121.485 108.799L122.457 108.269L122.143 107.692H121.485V108.799ZM126.002 117.092V118.198H127.865L126.974 116.562L126.002 117.092ZM120.674 117.092L119.697 117.611L120.009 118.198H120.674V117.092ZM116.263 108.799V107.692H114.42L115.286 109.318L116.263 108.799ZM112.005 117.092V99.0235H109.792V117.092H112.005ZM110.899 100.13H118.698V97.9168H110.899V100.13ZM118.698 100.13C119.904 100.13 120.906 100.349 121.734 100.751L122.701 98.7601C121.517 98.1857 120.173 97.9168 118.698 97.9168V100.13ZM121.734 100.751C122.557 101.151 123.176 101.711 123.619 102.44L125.51 101.289C124.836 100.182 123.89 99.3371 122.701 98.7601L121.734 100.751ZM123.619 102.44C124.054 103.153 124.296 104.045 124.296 105.164H126.509C126.509 103.718 126.193 102.411 125.51 101.289L123.619 102.44ZM124.296 105.164C124.296 106.292 124.046 107.162 123.61 107.834L125.466 109.039C126.183 107.936 126.509 106.624 126.509 105.164H124.296ZM123.607 107.839C123.163 108.53 122.536 109.063 121.686 109.434L122.573 111.462C123.793 110.928 124.772 110.12 125.469 109.035L123.607 107.839ZM121.684 109.435C120.823 109.814 119.777 110.021 118.521 110.021V112.234C120.017 112.234 121.378 111.988 122.575 111.461L121.684 109.435ZM118.521 110.021H113.863V112.234H118.521V110.021ZM114.97 111.128V107.316H112.756V111.128H114.97ZM113.863 108.423H117.533V106.21H113.863V108.423ZM117.533 108.423C118.194 108.423 118.815 108.343 119.37 108.15L118.643 106.059C118.386 106.149 118.025 106.21 117.533 106.21V108.423ZM119.379 108.147C119.979 107.932 120.496 107.569 120.863 107.033L119.037 105.782C118.969 105.882 118.857 105.983 118.634 106.062L119.379 108.147ZM120.855 107.045C121.246 106.489 121.392 105.832 121.392 105.164H119.179C119.179 105.519 119.102 105.691 119.045 105.771L120.855 107.045ZM121.392 105.164C121.392 104.492 121.247 103.832 120.861 103.273L119.04 104.531C119.101 104.619 119.179 104.801 119.179 105.164H121.392ZM120.874 103.292C120.512 102.745 119.998 102.366 119.392 102.141L118.621 104.216C118.839 104.297 118.953 104.401 119.027 104.512L120.874 103.292ZM119.41 102.148C118.841 101.926 118.205 101.834 117.533 101.834V104.047C118.014 104.047 118.36 104.114 118.603 104.209L119.41 102.148ZM117.533 101.834H115.804V104.047H117.533V101.834ZM114.697 102.941V117.092H116.911V102.941H114.697ZM115.804 115.985H110.899V118.198H115.804V115.985ZM120.514 109.328L125.031 117.621L126.974 116.562L122.457 108.269L120.514 109.328ZM126.002 115.985H120.674V118.198H126.002V115.985ZM121.651 116.572L117.24 108.279L115.286 109.318L119.697 117.611L121.651 116.572ZM116.263 109.905H121.485V107.692H116.263V109.905ZM125.903 99.0235V97.9168H124.055L124.928 99.546L125.903 99.0235ZM131.373 99.0235L132.37 98.5439L132.069 97.9168H131.373V99.0235ZM134.902 106.364L133.905 106.843L134.206 107.47H134.902V106.364ZM135.043 106.364V107.47H135.739L136.041 106.843L135.043 106.364ZM138.572 99.0235V97.9168H137.876L137.575 98.5439L138.572 99.0235ZM144.042 99.0235L145.017 99.546L145.89 97.9168H144.042V99.0235ZM137.408 111.41L136.432 110.887L136.301 111.132V111.41H137.408ZM137.408 117.092V118.198H138.514V117.092H137.408ZM132.538 117.092H131.431V118.198H132.538V117.092ZM132.538 111.41H133.644V111.132L133.513 110.887L132.538 111.41ZM125.903 100.13H131.373V97.9168H125.903V100.13ZM130.376 99.503L133.905 106.843L135.899 105.884L132.37 98.5439L130.376 99.503ZM134.902 107.47H135.043V105.257H134.902V107.47ZM136.041 106.843L139.569 99.503L137.575 98.5439L134.046 105.884L136.041 106.843ZM138.572 100.13H144.042V97.9168H138.572V100.13ZM143.066 98.5009L136.432 110.887L138.383 111.933L145.017 99.546L143.066 98.5009ZM136.301 111.41V117.092H138.514V111.41H136.301ZM137.408 115.985H132.538V118.198H137.408V115.985ZM133.644 117.092V111.41H131.431V117.092H133.644ZM133.513 110.887L126.879 98.5009L124.928 99.546L131.562 111.933L133.513 110.887ZM162.324 104.987L161.249 105.251L161.456 106.094H162.324V104.987ZM161.962 104.167L161.048 104.791L161.056 104.802L161.962 104.167ZM161.345 103.558L160.706 104.462L160.718 104.47L160.731 104.479L161.345 103.558ZM160.498 103.179L160.202 104.245L160.213 104.248L160.225 104.251L160.498 103.179ZM157.339 103.638L156.719 102.721L156.715 102.724L157.339 103.638ZM156.016 105.34L154.993 104.918L154.99 104.925L156.016 105.34ZM155.998 110.739L154.965 111.135L154.965 111.135L155.998 110.739ZM157.286 112.469L156.651 113.375L156.651 113.375L157.286 112.469ZM161.274 112.742L160.832 111.727L160.828 111.729L161.274 112.742ZM162.395 111.816L161.453 111.234L161.453 111.234L162.395 111.816ZM162.765 110.404L162.88 109.304L161.658 109.176V110.404H162.765ZM163.612 110.492V111.599L163.727 109.392L163.612 110.492ZM159.483 110.492H158.376V111.599H159.483V110.492ZM159.483 106.999V105.892H158.376V106.999H159.483ZM167.494 106.999H168.6V105.892H167.494V106.999ZM166.444 113.73L165.494 113.162L165.493 113.164L166.444 113.73ZM163.568 116.412L164.069 117.399L164.07 117.398L163.568 116.412ZM154.746 116.218L154.203 117.183L154.203 117.183L154.746 116.218ZM151.631 113.024L150.656 113.547L150.658 113.551L151.631 113.024ZM151.199 104.123L150.171 103.714L150.169 103.718L151.199 104.123ZM153.105 101.203L153.879 101.994L153.881 101.991L153.105 101.203ZM155.919 99.394L156.313 100.428L156.318 100.426L155.919 99.394ZM162.324 99.2352L161.974 100.285L161.982 100.288L162.324 99.2352ZM164.768 100.523L164.081 101.391L164.089 101.397L164.768 100.523ZM166.488 102.491L167.448 101.94L167.448 101.94L166.488 102.491ZM167.282 104.987V106.094H168.51L168.383 104.873L167.282 104.987ZM163.399 104.724C163.293 104.295 163.121 103.892 162.869 103.532L161.056 104.802C161.133 104.912 161.201 105.057 161.249 105.251L163.399 104.724ZM162.876 103.543C162.63 103.182 162.322 102.879 161.959 102.637L160.731 104.479C160.862 104.566 160.965 104.669 161.048 104.791L162.876 103.543ZM161.984 102.655C161.618 102.396 161.209 102.218 160.771 102.106L160.225 104.251C160.434 104.304 160.589 104.379 160.706 104.462L161.984 102.655ZM160.794 102.112C160.366 101.994 159.915 101.94 159.448 101.94V104.153C159.746 104.153 159.994 104.188 160.202 104.245L160.794 102.112ZM159.448 101.94C158.442 101.94 157.514 102.183 156.719 102.721L157.96 104.554C158.329 104.304 158.807 104.153 159.448 104.153V101.94ZM156.715 102.724C155.935 103.257 155.368 104.008 154.993 104.918L157.039 105.762C157.275 105.19 157.591 104.806 157.964 104.551L156.715 102.724ZM154.99 104.925C154.623 105.832 154.459 106.875 154.459 108.022H156.673C156.673 107.076 156.809 106.331 157.042 105.755L154.99 104.925ZM154.459 108.022C154.459 109.176 154.616 110.223 154.965 111.135L157.032 110.344C156.805 109.75 156.673 108.986 156.673 108.022H154.459ZM154.965 111.135C155.319 112.061 155.873 112.829 156.651 113.375L157.922 111.562C157.559 111.308 157.254 110.924 157.032 110.344L154.965 111.135ZM156.651 113.375C157.445 113.931 158.388 114.175 159.413 114.175V111.962C158.743 111.962 158.269 111.806 157.922 111.562L156.651 113.375ZM159.413 114.175C160.258 114.175 161.043 114.053 161.72 113.755L160.828 111.729C160.517 111.866 160.061 111.962 159.413 111.962V114.175ZM161.716 113.757C162.389 113.464 162.952 113.019 163.336 112.397L161.453 111.234C161.343 111.413 161.159 111.585 160.832 111.727L161.716 113.757ZM163.336 112.397C163.707 111.798 163.872 111.119 163.872 110.404H161.658C161.658 110.772 161.577 111.034 161.453 111.234L163.336 112.397ZM162.65 111.505L163.497 111.593L163.727 109.392L162.88 109.304L162.65 111.505ZM163.612 109.386H159.483V111.599H163.612V109.386ZM160.59 110.492V106.999H158.376V110.492H160.59ZM159.483 108.106H167.494V105.892H159.483V108.106ZM166.387 106.999V109.504H168.6V106.999H166.387ZM166.387 109.504C166.387 110.993 166.072 112.196 165.494 113.162L167.394 114.298C168.216 112.924 168.6 111.31 168.6 109.504H166.387ZM165.493 113.164C164.908 114.147 164.105 114.896 163.065 115.426L164.07 117.398C165.477 116.681 166.592 115.643 167.395 114.297L165.493 113.164ZM163.067 115.425C162.027 115.953 160.807 116.232 159.377 116.232V118.445C161.101 118.445 162.673 118.107 164.069 117.399L163.067 115.425ZM159.377 116.232C157.779 116.232 156.427 115.894 155.288 115.253L154.203 117.183C155.722 118.036 157.458 118.445 159.377 118.445V116.232ZM155.288 115.253C154.147 114.612 153.256 113.702 152.605 112.498L150.658 113.551C151.501 115.111 152.686 116.33 154.203 117.183L155.288 115.253ZM152.607 112.502C151.968 111.311 151.626 109.855 151.626 108.093H149.413C149.413 110.142 149.812 111.973 150.656 113.547L152.607 112.502ZM151.626 108.093C151.626 106.71 151.836 105.528 152.229 104.527L150.169 103.718C149.656 105.023 149.413 106.488 149.413 108.093H151.626ZM152.227 104.532C152.634 103.509 153.187 102.67 153.879 101.994L152.331 100.411C151.399 101.323 150.681 102.431 150.171 103.714L152.227 104.532ZM153.881 101.991C154.584 101.298 155.392 100.779 156.313 100.428L155.525 98.3599C154.317 98.8203 153.249 99.5069 152.328 100.414L153.881 101.991ZM156.318 100.426C157.247 100.067 158.252 99.8831 159.342 99.8831V97.6698C157.997 97.6698 156.72 97.8977 155.52 98.3618L156.318 100.426ZM159.342 99.8831C160.306 99.8831 161.181 100.021 161.974 100.285L162.674 98.1853C161.632 97.8381 160.519 97.6698 159.342 97.6698V99.8831ZM161.982 100.288C162.79 100.55 163.486 100.92 164.081 101.391L165.455 99.6556C164.638 99.009 163.704 98.52 162.666 98.1827L161.982 100.288ZM164.089 101.397C164.69 101.864 165.167 102.411 165.528 103.041L167.448 101.94C166.939 101.052 166.269 100.288 165.447 99.6493L164.089 101.397ZM165.528 103.041C165.883 103.66 166.103 104.343 166.181 105.102L168.383 104.873C168.273 103.82 167.963 102.838 167.448 101.94L165.528 103.041ZM167.282 103.881H162.324V106.094H167.282V103.881ZM173.916 117.092V118.198H174.738L174.976 117.411L173.916 117.092ZM168.623 117.092L167.572 116.745L167.092 118.198H168.623V117.092ZM174.587 99.0235V97.9168H173.787L173.536 98.6766L174.587 99.0235ZM181.292 99.0235L182.343 98.6766L182.092 97.9168H181.292V99.0235ZM187.256 117.092V118.198H188.786L188.307 116.745L187.256 117.092ZM181.962 117.092L180.903 117.411L181.14 118.198H181.962V117.092ZM178.01 103.999L179.069 103.679L178.832 102.893H178.01V103.999ZM177.869 103.999V102.893H177.047L176.809 103.679L177.869 103.999ZM172.928 109.963V108.856H171.822V109.963H172.928ZM182.88 109.963H183.987V108.856H182.88V109.963ZM182.88 113.633V114.74H183.987V113.633H182.88ZM172.928 113.633H171.822V114.74H172.928V113.633ZM173.916 115.985H168.623V118.198H173.916V115.985ZM169.674 117.438L175.638 99.3703L173.536 98.6766L167.572 116.745L169.674 117.438ZM174.587 100.13H181.292V97.9168H174.587V100.13ZM180.241 99.3703L186.205 117.438L188.307 116.745L182.343 98.6766L180.241 99.3703ZM187.256 115.985H181.962V118.198H187.256V115.985ZM183.022 116.772L179.069 103.679L176.951 104.319L180.903 117.411L183.022 116.772ZM178.01 102.893H177.869V105.106H178.01V102.893ZM176.809 103.679L172.857 116.772L174.976 117.411L178.928 104.319L176.809 103.679ZM172.928 111.07H182.88V108.856H172.928V111.07ZM181.773 109.963V113.633H183.987V109.963H181.773ZM182.88 112.527H172.928V114.74H182.88V112.527ZM174.035 113.633V109.963H171.822V113.633H174.035ZM188.996 99.0235V97.9168H187.889V99.0235H188.996ZM195.101 99.0235L196.125 98.6033L195.843 97.9168H195.101V99.0235ZM199.3 109.257L198.277 109.677L198.558 110.364H199.3V109.257ZM199.512 109.257V110.364H200.254L200.536 109.677L199.512 109.257ZM203.712 99.0235V97.9168H202.97L202.688 98.6033L203.712 99.0235ZM209.817 99.0235H210.923V97.9168H209.817V99.0235ZM209.817 117.092V118.198H210.923V117.092H209.817ZM205.017 117.092H203.911V118.198H205.017V117.092ZM205.017 106.646H206.124V105.539H205.017V106.646ZM204.876 106.646V105.539H204.12L203.845 106.243L204.876 106.646ZM200.853 116.95V118.057H201.609L201.884 117.353L200.853 116.95ZM197.959 116.95L196.928 117.35L197.202 118.057H197.959V116.95ZM193.936 106.575L194.968 106.175L194.694 105.469H193.936V106.575ZM193.795 106.575V105.469H192.689V106.575H193.795ZM193.795 117.092V118.198H194.902V117.092H193.795ZM188.996 117.092H187.889V118.198H188.996V117.092ZM188.996 100.13H195.101V97.9168H188.996V100.13ZM194.077 99.4436L198.277 109.677L200.324 108.837L196.125 98.6033L194.077 99.4436ZM199.3 110.364H199.512V108.151H199.3V110.364ZM200.536 109.677L204.735 99.4436L202.688 98.6033L198.488 108.837L200.536 109.677ZM203.712 100.13H209.817V97.9168H203.712V100.13ZM208.71 99.0235V117.092H210.923V99.0235H208.71ZM209.817 115.985H205.017V118.198H209.817V115.985ZM206.124 117.092V106.646H203.911V117.092H206.124ZM205.017 105.539H204.876V107.753H205.017V105.539ZM203.845 106.243L199.822 116.548L201.884 117.353L205.907 107.048L203.845 106.243ZM200.853 115.844H197.959V118.057H200.853V115.844ZM198.991 116.55L194.968 106.175L192.905 106.975L196.928 117.35L198.991 116.55ZM193.936 105.469H193.795V107.682H193.936V105.469ZM192.689 106.575V117.092H194.902V106.575H192.689ZM193.795 115.985H188.996V118.198H193.795V115.985ZM190.103 117.092V99.0235H187.889V117.092H190.103ZM212.141 117.092H211.035V118.198H212.141V117.092ZM212.141 99.0235V97.9168H211.035V99.0235H212.141ZM225.163 99.0235H226.27V97.9168H225.163V99.0235ZM225.163 102.976V104.083H226.27V102.976H225.163ZM217.047 102.976V101.869H215.94V102.976H217.047ZM217.047 106.081H215.94V107.188H217.047V106.081ZM224.493 106.081H225.599V104.975H224.493V106.081ZM224.493 110.034V111.14H225.599V110.034H224.493ZM217.047 110.034V108.927H215.94V110.034H217.047ZM217.047 113.139H215.94V114.246H217.047V113.139ZM225.128 113.139H226.234V112.032H225.128V113.139ZM225.128 117.092V118.198H226.234V117.092H225.128ZM213.248 117.092V99.0235H211.035V117.092H213.248ZM212.141 100.13H225.163V97.9168H212.141V100.13ZM224.056 99.0235V102.976H226.27V99.0235H224.056ZM225.163 101.869H217.047V104.083H225.163V101.869ZM215.94 102.976V106.081H218.153V102.976H215.94ZM217.047 107.188H224.493V104.975H217.047V107.188ZM223.386 106.081V110.034H225.599V106.081H223.386ZM224.493 108.927H217.047V111.14H224.493V108.927ZM215.94 110.034V113.139H218.153V110.034H215.94ZM217.047 114.246H225.128V112.032H217.047V114.246ZM224.021 113.139V117.092H226.234V113.139H224.021ZM225.128 115.985H212.141V118.198H225.128V115.985Z" fill="white" mask="url(#path-2-outside-1_462_1123)"/>
<path d="M165.92 40.2276H165.476V40.6713V79.5348V79.9784H165.92H184.553H184.996V79.5348V40.6713V40.2276H184.553H165.92Z" fill="#426141" stroke="white" stroke-width="0.887273"/>
<path d="M166.364 22.1348H184.109V36.6122H166.364V22.1348Z" fill="#DC2E44" stroke="white" stroke-width="0.887273"/>
<path d="M104.869 61.4586H93.4879L86.0655 77.7271H111.796L104.869 61.4586Z" fill="#DC2E44"/>
<mask id="path-7-outside-2_462_1123" maskUnits="userSpaceOnUse" x="3" y="20" width="69" height="57" fill="black">
<rect fill="white" x="3" y="20" width="69" height="57"/>
<path d="M4.48556 76V20.9142H19.7522L41.7865 56.8774H33.7597L55.1645 20.9142H70.4311L70.5885 76H53.6693L53.5119 46.4111H56.1875L41.5504 71.0423H33.3663L18.0996 46.4111H21.4048V76H4.48556Z"/>
</mask>
<path d="M4.48556 76V20.9142H19.7522L41.7865 56.8774H33.7597L55.1645 20.9142H70.4311L70.5885 76H53.6693L53.5119 46.4111H56.1875L41.5504 71.0423H33.3663L18.0996 46.4111H21.4048V76H4.48556Z" fill="#426141"/>
<path d="M4.48556 76H3.59829V76.8873H4.48556V76ZM4.48556 20.9142V20.0269H3.59829V20.9142H4.48556ZM19.7522 20.9142L20.5088 20.4507L20.2491 20.0269H19.7522V20.9142ZM41.7865 56.8774V57.7646H43.3707L42.5431 56.4138L41.7865 56.8774ZM33.7597 56.8774L32.9973 56.4236L32.1991 57.7646H33.7597V56.8774ZM55.1645 20.9142V20.0269H54.6601L54.4021 20.4604L55.1645 20.9142ZM70.4311 20.9142L71.3184 20.9117L71.3159 20.0269H70.4311V20.9142ZM70.5885 76V76.8873H71.4783L71.4758 75.9975L70.5885 76ZM53.6693 76L52.7821 76.0047L52.7868 76.8873H53.6693V76ZM53.5119 46.4111V45.5238H52.6199L52.6247 46.4158L53.5119 46.4111ZM56.1875 46.4111L56.9503 46.8643L57.7469 45.5238H56.1875V46.4111ZM41.5504 71.0423V71.9296H42.0553L42.3132 71.4955L41.5504 71.0423ZM33.3663 71.0423L32.6121 71.5097L32.8723 71.9296H33.3663V71.0423ZM18.0996 46.4111V45.5238H16.5058L17.3455 46.8785L18.0996 46.4111ZM21.4048 46.4111H22.292V45.5238H21.4048V46.4111ZM21.4048 76V76.8873H22.292V76H21.4048ZM5.37283 76V20.9142H3.59829V76H5.37283ZM4.48556 21.8015H19.7522V20.0269H4.48556V21.8015ZM18.9956 21.3777L41.03 57.3409L42.5431 56.4138L20.5088 20.4507L18.9956 21.3777ZM41.7865 55.9901H33.7597V57.7646H41.7865V55.9901ZM34.5222 57.3312L55.9269 21.368L54.4021 20.4604L32.9973 56.4236L34.5222 57.3312ZM55.1645 21.8015H70.4311V20.0269H55.1645V21.8015ZM69.5439 20.9167L69.7013 76.0025L71.4758 75.9975L71.3184 20.9117L69.5439 20.9167ZM70.5885 75.1127H53.6693V76.8873H70.5885V75.1127ZM54.5566 75.9953L54.3992 46.4063L52.6247 46.4158L52.7821 76.0047L54.5566 75.9953ZM53.5119 47.2983H56.1875V45.5238H53.5119V47.2983ZM55.4248 45.9578L40.7877 70.589L42.3132 71.4955L56.9503 46.8643L55.4248 45.9578ZM41.5504 70.155H33.3663V71.9296H41.5504V70.155ZM34.1204 70.5748L18.8538 45.9436L17.3455 46.8785L32.6121 71.5097L34.1204 70.5748ZM18.0996 47.2983H21.4048V45.5238H18.0996V47.2983ZM20.5175 46.4111V76H22.292V46.4111H20.5175ZM21.4048 75.1127H4.48556V76.8873H21.4048V75.1127Z" fill="white" mask="url(#path-7-outside-2_462_1123)"/>
<mask id="path-9-outside-3_462_1123" maskUnits="userSpaceOnUse" x="111.684" y="20" width="54" height="57" fill="black">
<rect fill="white" x="111.684" y="20" width="54" height="57"/>
<path d="M129.131 76V35.3152H112.998V20.9142H163.835V35.3152H147.702V76H129.131Z"/>
</mask>
<path d="M129.131 76V35.3152H112.998V20.9142H163.835V35.3152H147.702V76H129.131Z" fill="#426141"/>
<path d="M129.131 76H128.243V76.8873H129.131V76ZM129.131 35.3152H130.018V34.4279H129.131V35.3152ZM112.998 35.3152H112.111V36.2025H112.998V35.3152ZM112.998 20.9142V20.0269H112.111V20.9142H112.998ZM163.835 20.9142H164.722V20.0269H163.835V20.9142ZM163.835 35.3152V36.2025H164.722V35.3152H163.835ZM147.702 35.3152V34.4279H146.815V35.3152H147.702ZM147.702 76V76.8873H148.59V76H147.702ZM130.018 76V35.3152H128.243V76H130.018ZM129.131 34.4279H112.998V36.2025H129.131V34.4279ZM113.886 35.3152V20.9142H112.111V35.3152H113.886ZM112.998 21.8015H163.835V20.0269H112.998V21.8015ZM162.947 20.9142V35.3152H164.722V20.9142H162.947ZM163.835 34.4279H147.702V36.2025H163.835V34.4279ZM146.815 35.3152V76H148.59V35.3152H146.815ZM147.702 75.1127H129.131V76.8873H147.702V75.1127Z" fill="white" mask="url(#path-9-outside-3_462_1123)"/>
<mask id="path-11-outside-4_462_1123" maskUnits="userSpaceOnUse" x="186.44" y="18" width="58" height="61" fill="black">
<rect fill="white" x="186.44" y="18" width="58" height="61"/>
<path d="M218.413 77.2591C214.006 77.2591 209.914 76.5771 206.137 75.2131C202.412 73.7966 199.159 71.803 196.379 69.2323C193.65 66.6616 191.526 63.6188 190.004 60.1038C188.483 56.5888 187.722 52.7066 187.722 48.4571C187.722 44.2076 188.483 40.3254 190.004 36.8104C191.526 33.2954 193.65 30.2525 196.379 27.6819C199.159 25.1112 202.412 23.1439 206.137 21.7798C209.914 20.3633 214.006 19.6551 218.413 19.6551C223.817 19.6551 228.591 20.5994 232.735 22.4881C236.932 24.3767 240.395 27.1048 243.123 30.6722L231.397 41.1386C229.771 39.0925 227.961 37.5186 225.967 36.4169C224.026 35.2627 221.823 34.6856 219.357 34.6856C217.416 34.6856 215.659 35.0004 214.085 35.63C212.511 36.2595 211.147 37.1776 209.993 38.3843C208.891 39.5909 208.025 41.0599 207.396 42.7911C206.766 44.4699 206.451 46.3586 206.451 48.4571C206.451 50.5556 206.766 52.4705 207.396 54.2018C208.025 55.8806 208.891 57.3233 209.993 58.5299C211.147 59.7366 212.511 60.6547 214.085 61.2842C215.659 61.9138 217.416 62.2285 219.357 62.2285C221.823 62.2285 224.026 61.6777 225.967 60.576C227.961 59.4218 229.771 57.8217 231.397 55.7756L243.123 66.2419C240.395 69.7569 236.932 72.485 232.735 74.4261C228.591 76.3148 223.817 77.2591 218.413 77.2591Z"/>
</mask>
<path d="M218.413 77.2591C214.006 77.2591 209.914 76.5771 206.137 75.2131C202.412 73.7966 199.159 71.803 196.379 69.2323C193.65 66.6616 191.526 63.6188 190.004 60.1038C188.483 56.5888 187.722 52.7066 187.722 48.4571C187.722 44.2076 188.483 40.3254 190.004 36.8104C191.526 33.2954 193.65 30.2525 196.379 27.6819C199.159 25.1112 202.412 23.1439 206.137 21.7798C209.914 20.3633 214.006 19.6551 218.413 19.6551C223.817 19.6551 228.591 20.5994 232.735 22.4881C236.932 24.3767 240.395 27.1048 243.123 30.6722L231.397 41.1386C229.771 39.0925 227.961 37.5186 225.967 36.4169C224.026 35.2627 221.823 34.6856 219.357 34.6856C217.416 34.6856 215.659 35.0004 214.085 35.63C212.511 36.2595 211.147 37.1776 209.993 38.3843C208.891 39.5909 208.025 41.0599 207.396 42.7911C206.766 44.4699 206.451 46.3586 206.451 48.4571C206.451 50.5556 206.766 52.4705 207.396 54.2018C208.025 55.8806 208.891 57.3233 209.993 58.5299C211.147 59.7366 212.511 60.6547 214.085 61.2842C215.659 61.9138 217.416 62.2285 219.357 62.2285C221.823 62.2285 224.026 61.6777 225.967 60.576C227.961 59.4218 229.771 57.8217 231.397 55.7756L243.123 66.2419C240.395 69.7569 236.932 72.485 232.735 74.4261C228.591 76.3148 223.817 77.2591 218.413 77.2591Z" fill="#426141"/>
<path d="M206.137 75.2131L205.821 76.0424L205.828 76.045L205.835 76.0476L206.137 75.2131ZM196.379 69.2323L195.77 69.8781L195.776 69.8838L196.379 69.2323ZM190.004 60.1038L189.19 60.4563L189.19 60.4563L190.004 60.1038ZM190.004 36.8104L189.19 36.4579L189.19 36.4579L190.004 36.8104ZM196.379 27.6819L195.776 27.0303L195.77 27.0361L196.379 27.6819ZM206.137 21.7798L206.442 22.613L206.448 22.6106L206.137 21.7798ZM232.735 22.4881L232.367 23.2955L232.371 23.2972L232.735 22.4881ZM243.123 30.6722L243.714 31.3342L244.327 30.7865L243.828 30.1333L243.123 30.6722ZM231.397 41.1386L230.703 41.6907L231.287 42.4261L231.988 41.8005L231.397 41.1386ZM225.967 36.4169L225.514 37.1796L225.526 37.1867L225.538 37.1935L225.967 36.4169ZM214.085 35.63L214.414 36.4538L214.414 36.4538L214.085 35.63ZM209.993 38.3843L209.351 37.771L209.344 37.7784L209.337 37.786L209.993 38.3843ZM207.396 42.7911L208.227 43.1027L208.23 43.0943L207.396 42.7911ZM207.396 54.2018L206.562 54.505L206.565 54.5133L207.396 54.2018ZM209.993 58.5299L209.337 59.1282L209.344 59.1358L209.351 59.1432L209.993 58.5299ZM214.085 61.2842L213.755 62.108L213.755 62.108L214.085 61.2842ZM225.967 60.576L226.405 61.3477L226.412 61.3438L225.967 60.576ZM231.397 55.7756L231.988 55.1137L231.287 54.4881L230.703 55.2235L231.397 55.7756ZM243.123 66.2419L243.824 66.786L244.332 66.1316L243.714 65.58L243.123 66.2419ZM232.735 74.4261L233.103 75.2335L233.108 75.2314L232.735 74.4261ZM218.413 76.3718C214.099 76.3718 210.11 75.7044 206.438 74.3785L205.835 76.0476C209.718 77.4498 213.913 78.1464 218.413 78.1464V76.3718ZM206.452 74.3837C202.828 73.0055 199.674 71.0704 196.981 68.5808L195.776 69.8838C198.644 72.5356 201.996 74.5877 205.821 76.0424L206.452 74.3837ZM196.987 68.5866C194.349 66.1005 192.293 63.1581 190.819 59.7514L189.19 60.4563C190.758 64.0795 192.952 67.2228 195.77 69.8781L196.987 68.5866ZM190.819 59.7514C189.35 56.3592 188.609 52.5987 188.609 48.4571H186.835C186.835 52.8145 187.615 56.8184 189.19 60.4563L190.819 59.7514ZM188.609 48.4571C188.609 44.3155 189.35 40.555 190.819 37.1628L189.19 36.4579C187.615 40.0958 186.835 44.0997 186.835 48.4571H188.609ZM190.819 37.1628C192.293 33.7561 194.349 30.8137 196.987 28.3276L195.77 27.0361C192.952 29.6914 190.758 32.8347 189.19 36.4579L190.819 37.1628ZM196.981 28.3334C199.671 25.8461 202.822 23.9387 206.442 22.613L205.831 20.9467C202.002 22.3491 198.647 24.3763 195.776 27.0304L196.981 28.3334ZM206.448 22.6106C210.117 21.2348 214.103 20.5424 218.413 20.5424V18.7678C213.909 18.7678 209.711 19.4919 205.825 20.949L206.448 22.6106ZM218.413 20.5424C223.713 20.5424 228.358 21.4683 232.367 23.2955L233.103 21.6807C228.824 19.7305 223.92 18.7678 218.413 18.7678V20.5424ZM232.371 23.2972C236.437 25.127 239.782 27.7637 242.418 31.2112L243.828 30.1333C241.008 26.4459 237.427 23.6264 233.099 21.679L232.371 23.2972ZM242.532 30.0103L230.807 40.4766L231.988 41.8005L243.714 31.3342L242.532 30.0103ZM232.092 40.5865C230.403 38.4622 228.507 36.8064 226.397 35.6403L225.538 37.1935C227.416 38.2309 229.139 39.7228 230.703 41.6907L232.092 40.5865ZM226.421 35.6543C224.33 34.4111 221.967 33.7984 219.357 33.7984V35.5729C221.678 35.5729 223.723 36.1143 225.514 37.1796L226.421 35.6543ZM219.357 33.7984C217.319 33.7984 215.448 34.1291 213.755 34.8062L214.414 36.4538C215.869 35.8718 217.513 35.5729 219.357 35.5729V33.7984ZM213.755 34.8062C212.065 35.4821 210.595 36.4713 209.351 37.771L210.634 38.9976C211.699 37.884 212.956 37.037 214.414 36.4538L213.755 34.8062ZM209.337 37.786C208.148 39.0886 207.226 40.6614 206.562 42.4879L208.23 43.0943C208.824 41.4583 209.634 40.0932 210.648 38.9825L209.337 37.786ZM206.565 42.4796C205.892 44.2734 205.564 46.27 205.564 48.4571H207.339C207.339 46.4472 207.64 44.6665 208.226 43.1027L206.565 42.4796ZM205.564 48.4571C205.564 50.6448 205.892 52.664 206.562 54.505L208.23 53.8985C207.64 52.277 207.339 50.4664 207.339 48.4571H205.564ZM206.565 54.5133C207.23 56.2877 208.152 57.8303 209.337 59.1282L210.648 57.9317C209.629 56.8163 208.82 55.4735 208.226 53.8902L206.565 54.5133ZM209.351 59.1432C210.595 60.4429 212.065 61.4321 213.755 62.108L214.414 60.4604C212.956 59.8772 211.699 59.0302 210.634 57.9166L209.351 59.1432ZM213.755 62.108C215.448 62.7851 217.319 63.1158 219.357 63.1158V61.3413C217.513 61.3413 215.869 61.0424 214.414 60.4604L213.755 62.108ZM219.357 63.1158C221.96 63.1158 224.317 62.5329 226.405 61.3476L225.53 59.8043C223.736 60.8225 221.686 61.3413 219.357 61.3413V63.1158ZM226.412 61.3438C228.514 60.127 230.406 58.4491 232.092 56.3277L230.703 55.2235C229.136 57.1943 227.408 58.7165 225.523 59.8081L226.412 61.3438ZM230.807 56.4376L242.532 66.9039L243.714 65.58L231.988 55.1137L230.807 56.4376ZM242.422 65.6979C239.784 69.0963 236.436 71.7368 232.363 73.6208L233.108 75.2314C237.428 73.2332 241.005 70.4175 243.824 66.786L242.422 65.6979ZM232.367 73.6187C228.358 75.4458 223.713 76.3718 218.413 76.3718V78.1464C223.92 78.1464 228.824 77.1837 233.103 75.2335L232.367 73.6187Z" fill="white" mask="url(#path-11-outside-4_462_1123)"/>
</svg>
