<svg width="24" height="24" viewBox="0 0 24 24" fill="none" xmlns="http://www.w3.org/2000/svg">
<path d="M9.99999 16V8C9.95119 8.0755 10.0002 7.91215 9.99999 8C9.91619 8.04206 10.0488 7.92449 9.99999 8C10.0838 7.95793 10.9046 7.99687 11 8C10.9196 7.95256 11.0954 8.00312 11 8L17 12C16.9572 11.9279 17.0751 12.0443 17 12C17 11.9179 17.0428 12.0721 17 12C17 12.0821 17.0428 11.9279 17 12C16.9572 12.0721 17.0751 11.9557 17 12L11 16C10.9196 16.0474 11.0954 15.9969 11 16C10.9046 16.0031 10.0838 16.0421 9.99999 16C10.0488 16.0755 9.91619 15.9579 9.99999 16C10.0002 16.0878 9.95119 15.9245 9.99999 16Z" fill="white"/>
<path d="M1 12C1 5.925 5.925 1 12 1C18.075 1 23 5.925 23 12C23 18.075 18.075 23 12 23C5.925 23 1 18.075 1 12ZM12 3C9.48044 3 6.7816 3.2184 5 5C3.2184 6.7816 3 9.48044 3 12C3 14.5196 3.2184 17.2184 5 19C6.7816 20.7816 9.48044 22 12 22C14.5196 22 17.2184 20.7816 19 19C20.7816 17.2184 22 14.5196 22 12C22 9.48044 20.7816 6.7816 19 5C17.2184 3.2184 14.5196 3 12 3Z" fill="white"/>
</svg>
