<svg width="37" height="36" viewBox="0 0 37 36" fill="none" xmlns="http://www.w3.org/2000/svg">
<path d="M24.3206 11.878H30.3146C32.0413 11.878 33.2993 12.1 34.0886 12.544C34.8779 12.9387 35.3959 13.5553 35.6426 14.394C35.9386 15.2327 36.0866 16.3673 36.0866 17.798C36.0866 19.1793 35.9633 20.2893 35.7166 21.128C35.4699 21.9667 35.0506 22.5587 34.4586 22.904C33.5706 23.348 32.3126 23.57 30.6846 23.57H24.3206V29.564C24.3206 31.2907 24.0986 32.5487 23.6546 33.338C23.2599 34.1273 22.6433 34.67 21.8046 34.966C20.9659 35.2127 19.8313 35.336 18.4006 35.336C17.0193 35.336 15.9093 35.2127 15.0706 34.966C14.2319 34.67 13.6399 34.2013 13.2946 33.56C12.8506 32.6227 12.6286 31.266 12.6286 29.49V23.57H6.1906C4.5626 23.57 3.3786 23.3727 2.6386 22.978C1.8986 22.5833 1.40527 21.9667 1.1586 21.128C0.911932 20.24 0.788599 19.1053 0.788599 17.724C0.788599 16.3427 0.911932 15.2327 1.1586 14.394C1.4546 13.506 1.94793 12.8893 2.6386 12.544C3.57593 12.1 4.9326 11.878 6.7086 11.878H12.6286V5.884C12.6286 4.15733 12.8259 2.89933 13.2206 2.11C13.6153 1.32066 14.2319 0.802663 15.0706 0.555997C15.9586 0.259998 17.0933 0.111998 18.4746 0.111998C19.8559 0.111998 20.9659 0.259998 21.8046 0.555997C22.6926 0.802663 23.3093 1.24666 23.6546 1.888C24.0986 2.82533 24.3206 4.182 24.3206 5.958V11.878Z" fill="#DC2E44"/>
</svg>
