<svg width="33" height="27" viewBox="0 0 33 27" fill="none" xmlns="http://www.w3.org/2000/svg">
<path d="M27.2806 11.204H5.8946C3.32927 11.204 1.79993 10.4147 1.3066 8.836C1.0106 7.99733 0.862599 6.93667 0.862599 5.654C0.862599 4.322 0.985932 3.26133 1.2326 2.472C1.5286 1.63333 1.9726 1.066 2.5646 0.769999C3.4526 0.325999 4.58727 0.103999 5.9686 0.103999H27.3546C29.9693 0.103999 31.5479 0.893332 32.0906 2.472C32.3373 3.26133 32.4606 4.322 32.4606 5.654C32.4606 6.986 32.3373 8.07133 32.0906 8.91C31.8439 9.69933 31.4246 10.2667 30.8326 10.612C30.2406 10.908 29.7226 11.0807 29.2786 11.13C28.8839 11.1793 28.2179 11.204 27.2806 11.204ZM27.2806 26.892H5.8946C3.27993 26.892 1.70127 26.1027 1.1586 24.524C0.911932 23.6853 0.788599 22.6247 0.788599 21.342C0.788599 20.01 0.911932 18.9493 1.1586 18.16C1.4546 17.3213 1.8986 16.754 2.4906 16.458C3.42793 16.014 4.58727 15.792 5.9686 15.792H27.3546C29.9199 15.792 31.4493 16.5813 31.9426 18.16C32.2386 18.9493 32.3866 20.01 32.3866 21.342C32.3866 22.674 32.2633 23.7593 32.0166 24.598C31.7699 25.3873 31.3506 25.9547 30.7586 26.3C30.1666 26.596 29.6486 26.7687 29.2046 26.818C28.8099 26.8673 28.1686 26.892 27.2806 26.892Z" fill="#DC2E44"/>
</svg>
