<svg width="21" height="19" viewBox="0 0 21 19" fill="none" xmlns="http://www.w3.org/2000/svg">
<path d="M19 15C19.3802 15.0002 19.7248 14.7379 20 15C20.2752 15.2621 19.9817 15.6207 20 16C20.0183 16.3793 20.2487 16.7127 20 17C19.7513 17.2873 19.3784 17.9634 19 18H2.99999C2.61977 17.9998 1.27516 18.2621 0.999987 18C0.724817 17.7379 1.01826 17.3793 0.999987 17C0.981715 16.6207 0.751277 16.2873 0.999987 16C1.2487 15.7127 1.62155 15.0366 1.99999 15H2.99999H19ZM19 8C19.3926 8 19.7223 7.72266 20 8C20.2776 8.27734 20 9.60779 20 10C20 10.3922 20.2776 10.7227 20 11C19.7223 11.2773 19.3926 11 19 11H2.99999C2.60733 11 1.27764 11.2773 0.999987 11C0.722337 10.7227 0.999987 10.3922 0.999987 10C0.999987 9.60779 0.722337 8.27734 0.999987 8C1.27764 7.72266 2.60733 8 2.99999 8H19ZM19 1C19.3926 1 19.7223 0.722663 20 1C20.2776 1.27734 20 2.60779 20 3C20 3.39222 20.2776 3.72266 20 4C19.7223 4.27734 19.3926 4 19 4H2.99999C2.60733 4 1.27764 4.27734 0.999987 4C0.722337 3.72266 0.999987 3.39222 0.999987 3C0.999987 2.60779 0.722337 1.27734 0.999987 1C1.27764 0.722663 2.60733 1 2.99999 1H19Z" fill="black"/>
</svg>
