<svg width="31" height="36" viewBox="0 0 31 36" fill="none" xmlns="http://www.w3.org/2000/svg">
<path d="M20.0011 4.06427C20.0292 6.2962 19.6358 8.8606 20.0011 11.0643C19.973 10.9795 20.0292 11.149 20.0011 11.0643C20.282 12.5899 21.6525 14.3015 23.0011 15.0643C23.9001 15.5728 23.9615 15.8948 25.0011 16.0643C26.5744 16.3468 28.4277 16.7535 30.0011 17.0643C30.4506 17.149 30.9449 17.6687 31.0011 18.0643C31.0573 18.4316 30.3944 17.8665 30.0011 18.0643C29.7763 18.149 30.2259 18.9795 30.0011 19.0643C28.6806 19.4033 27.2373 19.4427 26.0011 20.0643C24.0063 21.0531 22.844 23.0019 22.0011 25.0643C21.0177 27.4375 20.3382 29.5216 20.0011 32.0643C19.9168 32.7988 19.0854 33.3297 19.0011 34.0643C18.9449 34.5446 19.3944 35.036 19.0011 35.0643C18.6077 35.1208 18.1978 34.4881 18.0011 34.0643C17.9168 33.8665 17.0573 34.262 17.0011 34.0643C16.383 32.0019 16.0968 29.9289 15.0011 28.0643C14.7482 27.6687 14.3101 27.4033 14.0011 27.0643C12.5963 25.5669 10.743 24.1661 9.00109 23.0643C7.56821 22.1602 6.63063 21.4316 5.00109 21.0643C3.68059 20.7818 2.32158 20.3185 1.00109 20.0643C0.495363 19.9795 0.0291808 19.4598 0.00108511 19.0643C-0.0270106 18.6405 0.495363 19.1773 1.00109 19.0643C0.832511 19.0643 1.14156 19.036 1.00109 19.0643C1.78776 19.149 2.2706 18.1773 3.00109 18.0643C4.49016 17.81 6.56821 17.5163 8.00109 17.0643C8.73157 16.8383 9.2706 16.3185 10.0011 16.0643C12.3611 15.2167 14.102 14.3245 15.0011 12.0643C15.2259 11.471 14.7482 10.6293 15.0011 10.0643C15.3663 9.2167 15.6358 7.91184 16.0011 7.06427C16.2259 6.58398 16.8606 6.57281 17.0011 6.06427C17.3382 4.84943 17.6639 3.30737 18.0011 2.06427C18.0573 1.86651 17.9168 1.29029 18.0011 1.06427C18.1135 0.78175 18.692 1.03602 19.0011 1.06427C19.3382 1.09253 19.9449 1.7535 20.0011 2.06427C20.0011 1.81 20.0292 2.31854 20.0011 2.06427C20.0011 2.77058 20.0011 3.35797 20.0011 4.06427Z" fill="#FF6B00"/>
</svg>
